<?xml version="1.0" standalone="no"?><!DOCTYPE svg PUBLIC "-//W3C//DTD SVG 1.1//EN" "http://www.w3.org/Graphics/SVG/1.1/DTD/svg11.dtd"><svg t="1699449832687" class="icon" viewBox="0 0 1024 1024" version="1.1" xmlns="http://www.w3.org/2000/svg" p-id="1502" width="256" height="256" xmlns:xlink="http://www.w3.org/1999/xlink"><path d="M778.666667 85.333333H245.333333C157.013333 85.333333 85.333333 157.013333 85.333333 245.333333v533.333334C85.333333 866.986667 157.013333 938.666667 245.333333 938.666667h533.333334c88.32 0 160-71.68 160-160V245.333333C938.666667 157.013333 866.986667 85.333333 778.666667 85.333333zM413.866667 438.186667a121.813333 121.813333 0 0 1 171.946666 0c12.373333 12.8 12.373333 32.853333 0 45.226666-12.373333 12.8-32.853333 12.8-45.226666 0-22.613333-22.186667-59.306667-22.186667-81.493334 0l-154.026666 154.026667c-22.613333 22.613333-22.613333 59.306667 0 81.493333 22.186667 22.613333 58.88 22.613333 81.493333 0l64-64c12.8-12.373333 32.853333-12.373333 45.226667 0 12.8 12.373333 12.8 32.853333 0 45.226667l-64 64.426667c-23.893333 23.466667-55.04 35.413333-86.186667 35.413333s-62.293333-11.946667-85.76-35.413333a121.557333 121.557333 0 0 1 0-172.373334l154.026667-154.026666z m196.693333 147.626666c-23.893333 23.466667-55.04 35.413333-86.186667 35.413334s-62.293333-11.946667-86.186666-35.413334a32.170667 32.170667 0 0 1 0-45.226666c12.8-12.8 32.853333-12.8 45.226666 0 22.613333 22.186667 59.306667 22.186667 81.92 0l154.026667-154.026667c22.186667-22.613333 22.186667-59.306667 0-81.493333-22.613333-22.613333-59.306667-22.613333-81.92 0l-64 64c-12.373333 12.373333-32.853333 12.373333-45.226667 0a32.170667 32.170667 0 0 1 0-45.226667l64-64.426667a122.325333 122.325333 0 0 1 172.373334 0 122.325333 122.325333 0 0 1 0 172.373334l-154.026667 154.026666z" fill="#000000" p-id="1503"></path></svg>