<?xml version="1.0" standalone="no"?><!DOCTYPE svg PUBLIC "-//W3C//DTD SVG 1.1//EN" "http://www.w3.org/Graphics/SVG/1.1/DTD/svg11.dtd"><svg t="1699450090065" class="icon" viewBox="0 0 3424 1024" version="1.1" xmlns="http://www.w3.org/2000/svg" p-id="43033" width="1712" height="512" xmlns:xlink="http://www.w3.org/1999/xlink"><path d="M848.403002 137.270872H210.231084c-39.138245 0-70.869577 31.728071-70.869578 70.869577v639.228651c0 39.138245 31.728071 70.869577 70.869578 70.869577h638.171918c39.138245 0 70.869577-31.728071 70.869577-70.869577V208.140449c0-39.138245-31.731332-70.869577-70.869577-70.869577zM505.985756 561.177205v140.245378l-10.57711 8.356016-10.577111 8.356015-21.747818 17.18169-13.388542 10.577111-12.638391 9.986775v-194.88563c-0.15003-17.217566-3.835548-29.842912-10.955448-37.442255-6.914423-7.377559-18.525436-11.118523-34.503624-11.118523-13.382018 0-24.732109 3.421335-34.702578 10.459696-9.562778 6.748086-17.256705 15.625944-22.895873 26.411793v152.609802l-10.577111 8.356015-10.57711 8.356016-21.115084 16.682677-13.388541 10.57711-13.271127 10.485789v-262.346919h-0.189168v-164.002293l13.512479 8.629983 16.558739 10.57711 16.55874 10.577111 1.337223 0.854519 10.577111 6.75787 10.577111 6.75787 0.339198 0.218522v100.24283c20.045305-15.877081 44.066403-23.906945 71.720834-23.906944 45.191627 0.009785 99.215451 19.171217 99.923201 110.444866z m283.272834 194.523601h-206.930425l8.033125-6.346918 8.033125-6.346919 36.144169-28.557873 8.033125-6.346919 8.033125-6.346918h138.657018l-0.003262 53.945547z" fill="#172B46" p-id="43034"></path><path d="M1491.979259 758.238269c-9.363825 0-17.390427-3.339797-24.079806-10.032436-6.69264-6.689378-10.032437-14.71598-10.032436-24.079806v-137.31001h-176.578716v137.31001c0 9.363825-3.251736 17.390427-9.745423 24.079806-6.69264 6.69264-14.719242 10.032437-24.079806 10.032436-9.367087 0-17.393688-3.339797-24.079805-10.032436-6.69264-6.689378-10.032437-14.71598-10.032437-24.079806v-342.55749c0-9.360564 3.339797-17.387165 10.032437-24.079806 6.686117-6.686117 14.712719-10.032437 24.079805-10.032437 9.360564 0 17.387165 3.34632 24.079806 10.032437 6.493687 6.69264 9.745423 14.719242 9.745423 24.079806v137.31001h176.581977v-137.31001c0-9.360564 3.339797-17.387165 10.032437-24.079806 6.689378-6.686117 14.71598-10.032437 24.079805-10.032437 9.360564 0 17.387165 3.34632 24.079806 10.032437 6.689378 6.69264 10.032437 14.719242 10.032436 24.079806v342.55749c0 9.363825-3.343058 17.390427-10.032436 24.079806-6.695901 6.69264-14.722503 10.032437-24.083067 10.032436zM1923.970901 355.773171c7.263406 5.733753 11.467506 13.186327 12.6123 22.357723 0.955625 9.367087-1.532915 17.677441-7.452575 24.937585l-124.123683 155.369049v165.975513c0 9.363825-3.343058 17.390427-10.032436 24.079805-6.496949 6.496949-14.432228 9.745423-23.792792 9.745423-9.363825 0-17.299104-3.248474-23.792791-9.745423-6.69264-6.689378-10.032437-14.71598-10.032437-24.079805V558.437528l-124.123683-155.369049c-5.922921-7.260144-8.313616-15.57376-7.165561-24.937585 0.955625-9.174657 5.06188-16.627231 12.325286-22.357723 7.263406-5.91966 15.57376-8.4082 24.937585-7.452574 9.174657 1.148055 16.721815 5.352155 22.644737 12.6123l105.203603 131.863271 105.490616-131.863271c5.733753-7.260144 13.186327-11.467506 22.357723-12.6123 9.367087-0.955625 17.680702 1.529653 24.944108 7.452574zM2170.496184 346.311501c35.54405 0 65.83379 11.75452 90.869221 35.260297 25.224599 23.505778 37.84016 51.789683 37.84016 84.851716 0 32.491267-12.139379 60.390312-36.405091 83.706921-24.079805 23.12418-53.319336 35.260297-87.718592 36.405091h-1.148055c-2.106942 0.19243-3.251736 0.287014-3.440904 0.287014l-1.718822-0.287014h-83.990674v137.880777c0 9.363825-3.251736 17.299104-9.745423 23.792791-6.69264 6.69264-14.719242 10.032437-24.079805 10.032437-9.363825 0-17.299104-3.339797-23.792792-10.032437-6.69264-6.493687-10.032437-14.428966-10.032436-23.792791V380.136729c0-9.360564 3.339797-17.292581 10.032436-23.792791 6.493687-6.686117 14.428966-10.032437 23.792792-10.032437h119.537985z m2.009097 172.567046c16.23911-0.381598 30.100572-5.635907 41.564816-15.76619 11.467506-10.319451 17.197997-22.546891 17.197997-36.692105 0-14.334382-5.922921-26.659668-17.772024-36.979119-11.852365-10.319451-26.183486-15.479176-42.999886-15.479176h-85.709495v104.91659h87.718592zM2630.29555 690.300799c9.360564 0 17.295843 3.343058 23.792791 10.032437 6.689378 6.69264 10.032437 14.719242 10.032437 24.079805 0 9.363825-3.343058 17.299104-10.032437 23.792792-6.496949 6.69264-14.432228 10.032437-23.792791 10.032436H2422.75522c-9.363825 0-17.299104-3.339797-23.792791-10.032436-6.69264-6.493687-10.032437-14.428966-10.032437-23.792792V380.710757c0-9.552993 3.339797-17.579595 10.032437-24.079806 6.493687-6.686117 14.428966-10.032437 23.792791-10.032437h0.287014l207.253316 0.574028c9.360564 0 17.387165 3.34632 24.079805 10.032437 6.493687 6.69264 9.745423 14.719242 9.745423 24.079805 0 9.367087-3.343058 17.299104-10.032437 23.792792-6.496949 6.69264-14.432228 10.032437-23.792791 10.032437h-0.287014l-173.141073-0.574028v104.055548h124.981462c9.360564 0 17.387165 3.251736 24.079806 9.745423 6.689378 6.69264 10.032437 14.719242 10.032437 24.079805 0 9.363825-3.343058 17.390427-10.032437 24.079805-6.69264 6.496949-14.719242 9.745423-24.079806 9.745424h-124.981462v104.055547h173.428087v0.003262zM3032.760648 466.133238c0 25.224599-7.837434 48.065027-23.505778 68.511498-15.097578 20.257303-34.973284 34.68627-59.623855 43.286899l65.070594 131.863271c4.01167 8.219031 4.487852 16.725077 1.431808 25.511613-2.866876 8.789798-8.502784 15.290008-16.914245 19.494108a34.056796 34.056796 0 0 1-14.905149 3.440904c-13.949523 0-23.985221-6.307781-30.100572-18.92008l-75.964072-153.93398h-58.192048v136.735983c0 9.174657-3.343058 17.103413-10.032436 23.792791-6.496949 6.496949-14.432228 9.745423-23.792792 9.745423-9.174657 0-17.103413-3.248474-23.792791-9.745423-6.496949-6.689378-9.745423-14.618135-9.745424-23.792791V380.423743c0-9.360564 3.248474-17.292581 9.745424-23.792792 6.689378-6.686117 14.618135-10.032437 23.792791-10.032437h118.676944c35.354881 0 65.452192 11.659936 90.298454 34.973284 25.035431 23.31661 37.553146 51.502669 37.553147 84.56144z m-125.555491 51.887529c16.053204-0.574028 29.813558-5.828337 41.277803-15.76619 11.275076-10.127021 16.914245-22.165293 16.914245-36.118077 0-14.520289-5.922921-26.845575-17.772025-36.979119-11.852365-10.127021-26.08564-15.192162-42.712872-15.192162h-84.851715v104.055548h87.144564zM3254.348346 719.827343c9.174657 0 17.100152 3.251736 23.792791 9.745423 6.493687 6.496949 9.745423 14.334382 9.745423 23.505778 0 9.360564-3.251736 17.295843-9.745423 23.792792-6.69264 6.493687-14.618135 9.745423-23.792791 9.745423h-141.895708c-9.363825 0-17.299104-3.251736-23.792792-9.745423-6.496949-6.496949-9.745423-14.432228-9.745423-23.792792 0-9.174657 3.248474-17.008829 9.745423-23.505778 6.493687-6.493687 14.428966-9.745423 23.792792-9.745423h141.895708z" fill="#172B46" p-id="43035"></path></svg>