<svg xmlns="http://www.w3.org/2000/svg" version="1.1" xmlns:xlink="http://www.w3.org/1999/xlink" xmlns:svgjs="http://svgjs.dev/svgjs" width="1500" height="1500" viewBox="0 0 1500 1500"><rect width="1500" height="1500" fill="#000000"></rect><g transform="matrix(0.6666666666666666,0,0,0.6666666666666666,249.39393939393938,438.5856950067477)"><svg viewBox="0 0 396 247" data-background-color="#ffffff" preserveAspectRatio="xMidYMid meet" height="935" width="1500" xmlns="http://www.w3.org/2000/svg" xmlns:xlink="http://www.w3.org/1999/xlink"><g id="tight-bounds" transform="matrix(1,0,0,1,0.2400000000000091,-0.09999999999999432)"><svg viewBox="0 0 395.52 247.2" height="247.2" width="395.52"><g><svg></svg></g><g><svg viewBox="0 0 395.52 247.2" height="247.2" width="395.52"><g transform="matrix(1,0,0,1,117.69307382626656,47.215199999999996)"><svg viewBox="0 0 160.13385234746687 152.7696" height="152.7696" width="160.13385234746687"><g><svg viewBox="0 0 244.43136 233.19042505534713" height="152.7696" width="160.13385234746687"><g transform="matrix(1,0,0,1,0,169.94000358910546)"><svg viewBox="0 0 244.43136 63.250421466241676" height="63.250421466241676" width="244.43136"><g id="textblocktransform"><svg viewBox="0 0 244.43136 63.250421466241676" height="63.250421466241676" width="244.43136" id="textblock"><g><svg viewBox="0 0 244.43136 63.250421466241676" height="63.250421466241676" width="244.43136"><g transform="matrix(1,0,0,1,0,0)"><svg width="244.43136" viewBox="4.2 -35.1 172.53 44.650000000000006" height="63.250421466241676" data-palette-color="#e56d90"><path d="M18.4 0L18.65-15.55Q18.7-17.6 17.7-18.75 16.7-19.9 14.75-19.9L14.75-19.9Q11.45-19.9 8-16.35L8-16.35 7.9-10.05 8.15 0 4.2 0 4.5-9.75 4.25-34.75 8.2-35.1 8-19.65 8.3-19.65Q11.4-22.4 14.65-23.2L14.65-23.2Q18.45-23.2 20.4-21.45 22.35-19.7 22.3-16.45L22.3-16.45 22.2-9.95 22.4 0 18.4 0ZM29.25-23.05L30-20.1 35.5-4.3 35.85-4.3 41.55-19.75 42.3-22.9 45.85-22.9 37.65-0.8Q36.4 2.6 34.97 4.55 33.55 6.5 31.52 7.63 29.5 8.75 26.2 9.55L26.2 9.55 25.85 9.55Q24.8 8.5 24.2 7.2L24.2 7.2 24.3 6.75Q28.1 6 30.12 4.63 32.15 3.25 33.9 0L33.9 0 25.5-22.8 29.25-23.05ZM60.8-23.15Q65.09-23.15 67.4-20.3 69.7-17.45 69.7-12.15L69.7-12.15Q69.7-6.15 66.8-2.88 63.9 0.4 58.55 0.4L58.55 0.4Q56.45 0.4 54.2-0.05L54.2-0.05 54.3 9.25 50.4 9.25 50.65-9.7 50.4-22.65 54.2-23 54.15-19.75 54.5-19.75Q56.25-21.2 57.65-21.95 59.05-22.7 60.8-23.15L60.8-23.15ZM59.05-2.5Q62.35-2.5 64.15-4.8 65.95-7.1 65.95-11.35L65.95-11.35Q65.95-15.5 64.52-17.7 63.09-19.9 60.45-19.9L60.45-19.9Q58.9-19.9 57.37-19.05 55.85-18.2 54.15-16.4L54.15-16.4 54.1-10.05 54.15-3.8Q56.6-2.5 59.05-2.5L59.05-2.5ZM91.99-11.65L77.64-11.6 77.64-11.5Q77.64-7.3 79.54-5.05 81.44-2.8 84.94-2.8L84.94-2.8Q86.69-2.8 88.44-3.38 90.19-3.95 91.64-5L91.64-5 92.04-4.7 91.44-1.3Q87.94 0.4 84.44 0.4L84.44 0.4Q79.54 0.4 76.74-2.73 73.94-5.85 73.94-11.3L73.94-11.3Q73.94-16.8 76.74-20.05 79.54-23.3 84.29-23.3L84.29-23.3Q88.29-23.3 90.49-21.03 92.69-18.75 92.69-14.7L92.69-14.7Q92.69-13.35 92.49-12.15L92.49-12.15 91.99-11.65ZM84.29-20.5Q81.79-20.5 80.12-18.88 78.44-17.25 77.89-14.3L77.89-14.3 88.94-14.5 89.04-15.2Q89.04-17.75 87.82-19.13 86.59-20.5 84.29-20.5L84.29-20.5ZM109.39-22.95Q109.99-22.95 110.69-22.85L110.69-22.85 110.69-19 110.24-18.85Q109.39-19.1 108.39-19.1L108.39-19.1Q106.74-19.1 105.37-17.78 103.99-16.45 102.64-13.55L102.64-13.55 102.59-10.05 102.84 0 98.89 0 99.14-9.7 98.94-22.65 102.69-23 102.64-18.3 102.94-18.3Q104.34-20.8 106.04-21.88 107.74-22.95 109.39-22.95L109.39-22.95ZM132.49-35.1L132.14-10.05 132.29-4.9Q132.34-3.85 132.64-3.43 132.94-3 133.74-3L133.74-3Q134.54-3 135.44-3.3L135.44-3.3 135.84-2.95 135.44-0.7Q134.09 0.15 132.64 0.3L132.64 0.3Q131.09 0.15 130.21-0.75 129.34-1.65 129.14-3.2L129.14-3.2 128.79-3.2Q127.29-1.9 126.09-1.13 124.89-0.35 123.34 0.25L123.34 0.25Q118.39 0.25 115.74-2.78 113.09-5.8 113.09-11.4L113.09-11.4Q113.09-17.05 116.04-20.18 118.99-23.3 124.19-23.3L124.19-23.3Q126.54-23.3 128.59-22.8L128.59-22.8 128.54-34.75 132.49-35.1ZM123.74-20.5Q120.54-20.5 118.69-18.32 116.84-16.15 116.84-12.05L116.84-12.05Q116.84-7.8 118.51-5.45 120.19-3.1 123.14-3.1L123.14-3.1Q124.54-3.1 125.86-3.8 127.19-4.5 128.64-6.15L128.64-6.15 128.74-9.75 128.59-19.25Q125.94-20.5 123.74-20.5L123.74-20.5ZM149.44-23.3Q154.09-23.3 156.66-20.28 159.24-17.25 159.24-11.75L159.24-11.75Q159.24-5.95 156.54-2.78 153.84 0.4 148.84 0.4L148.84 0.4Q144.14 0.4 141.56-2.63 138.99-5.65 138.99-11.15L138.99-11.15Q138.99-16.95 141.71-20.13 144.44-23.3 149.44-23.3L149.44-23.3ZM149.19-20.5Q146.04-20.5 144.39-18.35 142.74-16.2 142.74-12.05L142.74-12.05Q142.74-7.25 144.36-4.85 145.99-2.45 149.09-2.45L149.09-2.45Q152.24-2.45 153.89-4.55 155.54-6.65 155.54-10.85L155.54-10.85Q155.54-15.6 153.91-18.05 152.29-20.5 149.19-20.5L149.19-20.5ZM172.63-3.05Q174.28-3.05 176.23-4.05L176.23-4.05 176.68-3.75 176.28-1.15Q173.58 0.1 171.28 0.3L171.28 0.3Q168.43-0.25 167.18-1.8 165.93-3.35 165.93-6.3L165.93-6.3 166.08-9.85 166.03-20.2 162.88-20.2 162.68-20.5 162.93-22.85 165.98-22.85 165.98-26.55 169.43-28.05 169.83-27.7 169.73-22.85 176.53-22.85 176.73-22.55 176.48-20.2 169.73-20.2 169.48-6.65Q169.43-4.65 170.18-3.85 170.93-3.05 172.63-3.05L172.63-3.05Z" opacity="1" transform="matrix(1,0,0,1,0,0)" fill="#ffffff" class="wordmark-text-0" data-fill-palette-color="primary" id="text-0"></path></svg></g></svg></g></svg></g></svg></g><g transform="matrix(1,0,0,1,52.177584703511755,0)"><svg viewBox="0 0 140.0761905929765 140.0761905929765" height="140.0761905929765" width="140.0761905929765"><g><svg></svg></g><g id="icon-0"><svg viewBox="0 0 140.0761905929765 140.0761905929765" height="140.0761905929765" width="140.0761905929765"><g><path d="M0 70.038c0-38.681 31.357-70.038 70.038-70.038 38.681 0 70.038 31.357 70.038 70.038 0 38.681-31.357 70.038-70.038 70.038-38.681 0-70.038-31.357-70.038-70.038zM70.038 134.372c35.531 0 64.334-28.803 64.334-64.334 0-35.531-28.803-64.334-64.334-64.334-35.531 0-64.334 28.803-64.334 64.334 0 35.531 28.803 64.334 64.334 64.334z" data-fill-palette-color="accent" fill="#ffffff" stroke="transparent"></path><ellipse rx="69.33771434352337" ry="69.33771434352337" cx="70.03809529648825" cy="70.03809529648825" fill="#ffffff" stroke="transparent" stroke-width="0" fill-opacity="1" data-fill-palette-color="accent"></ellipse></g><g transform="matrix(1,0,0,1,33.43320723035785,29.887739295837953)"><svg viewBox="0 0 73.2097761322608 80.3007120013006" height="80.3007120013006" width="73.2097761322608"><g><svg xmlns="http://www.w3.org/2000/svg" xmlns:xlink="http://www.w3.org/1999/xlink" version="1.1" x="0" y="0" viewBox="13.720000000000002 10.205999999999996 72.56 79.588" enable-background="new 0 0 100 100" xml:space="preserve" height="80.3007120013006" width="73.2097761322608" class="icon-cg-0" data-fill-palette-color="quaternary" id="cg-0"><g fill="#ffffff" data-fill-palette-color="quaternary"><path d="M42.161 67.091c-15.683 0-28.441-12.761-28.441-28.443 0-15.683 12.758-28.442 28.441-28.442 8 0 15.674 3.398 21.056 9.323 1.648 1.813 1.514 4.619-0.301 6.266-1.812 1.646-4.619 1.513-6.268-0.301-3.703-4.077-8.984-6.416-14.488-6.416-10.79 0-19.568 8.779-19.568 19.569 0 10.792 8.778 19.57 19.568 19.57 5.504 0 10.785-2.338 14.488-6.415 1.648-1.814 4.455-1.949 6.268-0.301 1.814 1.647 1.949 4.452 0.301 6.268C57.836 63.692 50.161 67.091 42.161 67.091z" fill="#000000" data-fill-palette-color="quaternary"></path></g><g fill="#ffffff" data-fill-palette-color="quaternary"><path d="M57.838 89.794c-7.999 0-15.674-3.397-21.056-9.323-1.647-1.812-1.513-4.619 0.301-6.267 1.812-1.648 4.619-1.513 6.266 0.3 3.704 4.08 8.985 6.417 14.489 6.417 10.792 0 19.569-8.778 19.569-19.568 0-10.791-8.777-19.57-19.569-19.57-5.504 0-10.785 2.339-14.489 6.416-1.647 1.813-4.453 1.949-6.266 0.301-1.814-1.647-1.948-4.453-0.301-6.267 5.382-5.925 13.057-9.322 21.056-9.322 15.684 0 28.442 12.759 28.442 28.442C86.28 77.035 73.521 89.794 57.838 89.794z" fill="#000000" data-fill-palette-color="quaternary"></path></g></svg></g></svg></g></svg></g></svg></g><g></g></svg></g></svg></g><g><path d="M165.916 37.433A80.067 80.067 0 0 1 229.604 37.433L225.867 37.433A76.33 76.33 0 0 0 169.653 37.433L165.916 37.433M165.916 209.767A80.067 80.067 0 0 0 229.604 209.767L225.867 209.767A76.33 76.33 0 0 1 169.653 209.767L165.916 209.767" fill="#ffffff" stroke="transparent" data-fill-palette-color="tertiary"></path></g></svg></g><defs></defs></svg><rect width="395.52" height="247.2" fill="none" stroke="none" visibility="hidden"></rect></g></svg></g></svg>